<svg width="16" height="16" viewBox="0 0 16 16" fill="none" xmlns="http://www.w3.org/2000/svg">
<path fill-rule="evenodd" clip-rule="evenodd" d="M12.7487 8.62401C12.7727 8.42401 12.7887 8.21601 12.7887 8.00001C12.7887 7.78401 12.7727 7.57601 12.7407 7.37601L14.0927 6.32001C14.2127 6.22401 14.2447 6.04801 14.1727 5.91201L12.8927 3.69601C12.8127 3.55201 12.6447 3.50401 12.5007 3.55201L10.9087 4.19201C10.5727 3.93601 10.2207 3.72801 9.82868 3.56801L9.58868 1.87201C9.56468 1.71201 9.42868 1.60001 9.26868 1.60001H6.70868C6.54868 1.60001 6.42068 1.71201 6.39668 1.87201L6.15668 3.56801C5.76468 3.72801 5.40468 3.94401 5.07668 4.19201L3.48468 3.55201C3.34068 3.49601 3.17268 3.55201 3.09268 3.69601L1.81268 5.91201C1.73268 6.05601 1.76468 6.22401 1.89268 6.32001L3.24468 7.37601C3.21268 7.57601 3.18868 7.79201 3.18868 8.00001C3.18868 8.20801 3.20468 8.42401 3.23668 8.62401L1.88468 9.68001C1.76468 9.77601 1.73268 9.95201 1.80468 10.088L3.08468 12.304C3.16468 12.448 3.33268 12.496 3.47668 12.448L5.06868 11.808C5.40468 12.064 5.75668 12.272 6.14868 12.432L6.38868 14.128C6.42068 14.288 6.54868 14.4 6.70868 14.4H9.26868C9.42868 14.4 9.56468 14.288 9.58068 14.128L9.82068 12.432C10.2127 12.272 10.5727 12.056 10.9007 11.808L12.4927 12.448C12.6367 12.504 12.8047 12.448 12.8847 12.304L14.1647 10.088C14.2447 9.94401 14.2127 9.77601 14.0847 9.68001L12.7487 8.62401ZM7.98867 10.4C6.66867 10.4 5.58867 9.32001 5.58867 8.00001C5.58867 6.68001 6.66867 5.60001 7.98867 5.60001C9.30867 5.60001 10.3887 6.68001 10.3887 8.00001C10.3887 9.32001 9.30867 10.4 7.98867 10.4Z" fill="#2F80ED"/>
</svg>
